<svg width="34" height="28" viewBox="0 0 34 28" fill="none" xmlns="http://www.w3.org/2000/svg">
<g clip-path="url(#clip0_283_96)">
<path d="M22.6815 3.96484H10.3556C10.3957 3.17117 10.8966 2.71484 11.7285 2.71484H21.3086C22.1405 2.71484 22.6414 3.17117 22.6815 3.96484Z" fill="black" fill-opacity="0.85"/>
<path d="M24.6791 6.75437C24.365 6.70444 24.0319 6.67969 23.6816 6.67969H9.3555C9.00533 6.67969 8.67227 6.70443 8.35828 6.75434C8.4646 5.81614 9.09946 5.29297 10.1367 5.29297H22.9102C23.9475 5.29297 24.5743 5.81615 24.6791 6.75437Z" fill="black" fill-opacity="0.85"/>
<path fill-rule="evenodd" clip-rule="evenodd" d="M26.748 21.3086V11.2793C26.748 9.26758 25.7227 8.25195 23.6816 8.25195H9.35547C7.31445 8.25195 6.28906 9.26758 6.28906 11.2793V14.4927C6.29224 14.4922 6.29553 14.4922 6.29883 14.4922C9.74609 14.4922 12.5879 17.334 12.5879 20.791C12.5879 22.0979 12.1719 23.3225 11.4652 24.3359H23.6816C25.7227 24.3359 26.748 23.3203 26.748 21.3086ZM20.5332 16.2695L14.9766 19.5605C14.5176 19.834 14 19.6094 14 19.1406V12.3535C14 11.875 14.5566 11.6895 14.9766 11.9336L20.5332 15.2246C20.9433 15.4688 20.9531 16.0352 20.5332 16.2695Z" fill="black" fill-opacity="0.85"/>
<path fill-rule="evenodd" clip-rule="evenodd" d="M6.25 26C9.1495 26 11.5 23.6495 11.5 20.75C11.5 17.8505 9.1495 15.5 6.25 15.5C3.35051 15.5 1 17.8505 1 20.75C1 23.6495 3.35051 26 6.25 26ZM5.89201 19.9287L6.28711 19.5286C6.66735 19.5938 6.90499 19.7272 7.09216 19.9139C7.81401 20.6312 7.80808 21.6391 7.09511 22.3505L6.07916 23.3672C5.36918 24.0756 4.35916 24.0816 3.63729 23.3613C2.9184 22.6439 2.92434 21.6361 3.63432 20.9247L4.50769 20.0562C4.47502 20.2489 4.49581 20.4712 4.57899 20.6579L3.99674 21.2389C3.47985 21.7547 3.47688 22.4839 3.99674 23.0055C4.5166 23.5213 5.24738 23.5184 5.76428 23.0026L6.73567 22.0363C7.24961 21.5235 7.25256 20.7884 6.73269 20.2696C6.53962 20.0769 6.28413 19.9613 5.89201 19.9287ZM6.60794 21.5709L6.21286 21.971C5.8326 21.9058 5.59495 21.7724 5.4078 21.5857C4.68593 20.8684 4.69187 19.8606 5.40483 19.1492L6.41782 18.1354C7.13076 17.424 8.14078 17.4181 8.86266 18.1384C9.58156 18.8587 9.5756 19.8635 8.86564 20.5749L7.99227 21.4434C8.02196 21.2508 8.00413 21.0314 7.92097 20.8417L8.50323 20.2607C9.01713 19.7479 9.02306 19.0158 8.50323 18.497C7.98336 17.9783 7.25256 17.9813 6.73269 18.497L5.76428 19.4634C5.25035 19.9762 5.24738 20.7113 5.76725 21.23C5.96034 21.4227 6.21581 21.5412 6.60794 21.5709Z" fill="#242424"/>
</g>
<defs>
<clipPath id="clip0_283_96">
<rect width="33.3984" height="27.0801" fill="white"/>
</clipPath>
</defs>
</svg>
