<svg width="16" height="16" viewBox="0 0 16 16" fill="none" xmlns="http://www.w3.org/2000/svg">
<path fill-rule="evenodd" clip-rule="evenodd" d="M6.96203 0H3.41772C1.53017 0 0 1.53017 0 3.41772V7.10127H1.39241V3.92405C1.39241 2.52586 2.52586 1.39241 3.92405 1.39241H6.96203V0ZM0 12.5823V9.1519H1.39241V12.076C1.39241 13.4741 2.52586 14.6076 3.92405 14.6076H6.96203V16H3.41772C1.53017 16 0 14.4698 0 12.5823ZM14.6076 12.076V9.1519H16V12.5823C16 14.4698 14.4698 16 12.5823 16H9.01266V14.6076H12.076C13.4741 14.6076 14.6076 13.4741 14.6076 12.076ZM16 3.41772V7.10127H14.6076V3.92405C14.6076 2.52586 13.4741 1.39241 12.076 1.39241H9.01266V0H12.5823C14.4698 0 16 1.53017 16 3.41772ZM8 11.0633C9.69181 11.0633 11.0633 9.69181 11.0633 8C11.0633 6.30819 9.69181 4.93671 8 4.93671C6.30819 4.93671 4.93671 6.30819 4.93671 8C4.93671 9.69181 6.30819 11.0633 8 11.0633Z" fill="black"/>
</svg>
