<svg width="16" height="16" viewBox="0 0 16 16" fill="none" xmlns="http://www.w3.org/2000/svg">
<path fill-rule="evenodd" clip-rule="evenodd" d="M16 4.98305V4.94898C16 4.77039 16 4.59179 15.9989 4.41319C15.998 4.25317 15.9961 4.09319 15.9918 3.93325C15.9824 3.58465 15.9618 3.23306 15.8998 2.88834C15.8369 2.53865 15.7343 2.2132 15.5724 1.89547C15.4134 1.58318 15.2056 1.29741 14.9577 1.04967C14.7098 0.80192 14.424 0.59427 14.1116 0.435299C13.7935 0.273455 13.4677 0.170815 13.1176 0.107961C12.7729 0.0460581 12.4212 0.0255339 12.0726 0.0161164C11.9125 0.0117864 11.7525 0.00996113 11.5924 0.00897084C11.4159 0.00788902 11.2394 0.00789545 11.0629 0.00790189L11.0222 0.00790288L8.81547 0H7.165L4.9973 0.00790288L4.9565 0.00790189C4.77967 0.00789545 4.60285 0.00788902 4.42603 0.00897084C4.2656 0.00996113 4.10525 0.0117864 3.94488 0.0161164C3.59547 0.0255339 3.24299 0.0460775 2.89742 0.108058C2.54687 0.170893 2.22059 0.273494 1.9021 0.435222C1.58904 0.594211 1.30257 0.801881 1.05419 1.04967C0.805839 1.29739 0.597666 1.5831 0.438307 1.89533C0.276056 2.21322 0.173183 2.53886 0.110155 2.88875C0.0480967 3.23333 0.0275338 3.5848 0.0180775 3.93325C0.0137669 4.09321 0.0119028 4.25319 0.010932 4.41319C0.0103915 4.50132 0.00800002 4.59935 0.00559113 4.69809C0.00280718 4.8122 0 4.92727 0 5.02911L5.8252e-05 7.16677L0 8.83492L0.00986401 11.018L0.00986345 11.0521C0.00985909 11.2309 0.00985473 11.4098 0.010932 11.5886C0.0119028 11.7489 0.0137669 11.9091 0.018097 12.0692C0.0275338 12.4183 0.0481356 12.7704 0.110252 13.1156C0.173261 13.4657 0.276114 13.7916 0.43823 14.1098C0.597607 14.4225 0.805819 14.7086 1.05419 14.9567C1.30255 15.2048 1.58894 15.4128 1.90195 15.572C2.22062 15.734 2.54707 15.8368 2.89782 15.8997C3.24324 15.9617 3.5956 15.9823 3.94488 15.9917C4.10525 15.996 4.26562 15.9979 4.42605 15.9989C4.60533 16 4.78459 15.9999 4.96387 15.9999H4.9973L7.18459 16H8.83916L11.0222 15.9999L11.063 15.9999H11.0635C11.2398 15.9999 11.4161 15.9999 11.5924 15.9989C11.7525 15.9979 11.9125 15.996 12.0726 15.9917C12.4213 15.9823 12.7731 15.9617 13.118 15.8997C13.4679 15.8367 13.7936 15.734 14.1114 15.572C14.4239 15.4128 14.7098 15.2049 14.9577 14.9567C15.2056 14.7087 15.4133 14.4226 15.5724 14.1099C15.7343 13.7916 15.837 13.4655 15.8999 13.1152C15.9618 12.7701 15.9824 12.4181 15.9918 12.0692C15.9961 11.909 15.998 11.7489 15.9989 11.5886C16 11.4121 16 11.2356 16 11.059V11.0586V11.018L15.9999 8.83492V7.16502L16 4.98305ZM4.48544 1.86408H7.20388V2.93204H4.87379C3.80139 2.93204 2.93204 3.80139 2.93204 4.87379V7.31068H1.86408V4.48544C1.86408 3.0377 3.0377 1.86408 4.48544 1.86408ZM1.86408 8.8835V11.5146C1.86408 12.9623 3.0377 14.1359 4.48544 14.1359H7.20388V13.068H4.87379C3.80139 13.068 2.93204 12.1986 2.93204 11.1262V8.8835H1.86408ZM13.068 8.8835V11.1262C13.068 12.1986 12.1986 13.068 11.1262 13.068H8.7767V14.1359H11.5146C12.9623 14.1359 14.1359 12.9623 14.1359 11.5146V8.8835H13.068ZM14.1359 7.31068V4.48544C14.1359 3.0377 12.9623 1.86408 11.5146 1.86408H8.7767V2.93204H11.1262C12.1986 2.93204 13.068 3.80139 13.068 4.87379V7.31068H14.1359ZM8 10.3495C9.2976 10.3495 10.3495 9.2976 10.3495 8C10.3495 6.7024 9.2976 5.65049 8 5.65049C6.7024 5.65049 5.65049 6.7024 5.65049 8C5.65049 9.2976 6.7024 10.3495 8 10.3495Z" fill="black"/>
</svg>
