<svg width="32" height="28" viewBox="0 0 32 28" fill="none" xmlns="http://www.w3.org/2000/svg">
<g clip-path="url(#clip0_283_129)">
<path d="M21.9002 3.96484H9.57434C9.61442 3.17117 10.1153 2.71484 10.9473 2.71484H20.5273C21.3593 2.71484 21.8602 3.17117 21.9002 3.96484Z" fill="black" fill-opacity="0.85"/>
<path d="M23.8979 6.75437C23.5838 6.70444 23.2507 6.67969 22.9004 6.67969H8.57425C8.22408 6.67969 7.89102 6.70443 7.57703 6.75434C7.68335 5.81614 8.31821 5.29297 9.3555 5.29297H22.1289C23.1662 5.29297 23.793 5.81615 23.8979 6.75437Z" fill="black" fill-opacity="0.85"/>
<path d="M25.9668 11.2793V21.3086C25.9668 23.3203 24.9414 24.3359 22.9004 24.3359H11.4652C11.8014 23.8562 12.0707 23.3277 12.2568 22.7637H22.8809C23.8379 22.7637 24.3945 22.2363 24.3945 21.2207V11.3672C24.3945 10.3516 23.8379 9.82422 22.8809 9.82422H8.60352C7.62695 9.82422 7.08008 10.3516 7.08008 11.3672V14.5467C6.82512 14.5089 6.56381 14.4922 6.29883 14.4922C6.03052 14.4922 5.76592 14.5093 5.50781 14.5482V11.2793C5.50781 9.26758 6.5332 8.25195 8.57422 8.25195H22.9004C24.9414 8.25195 25.9668 9.26758 25.9668 11.2793Z" fill="black" fill-opacity="0.85"/>
<path fill-rule="evenodd" clip-rule="evenodd" d="M6.25 26C9.1495 26 11.5 23.6495 11.5 20.75C11.5 17.8505 9.1495 15.5 6.25 15.5C3.35051 15.5 1 17.8505 1 20.75C1 23.6495 3.35051 26 6.25 26ZM5.89201 19.9287L6.28711 19.5286C6.66735 19.5938 6.90499 19.7272 7.09216 19.9139C7.81401 20.6312 7.80808 21.6391 7.09511 22.3505L6.07916 23.3672C5.36918 24.0756 4.35916 24.0816 3.63729 23.3613C2.9184 22.6439 2.92434 21.6361 3.63432 20.9247L4.50769 20.0562C4.47502 20.2489 4.49581 20.4712 4.57899 20.6579L3.99674 21.2389C3.47985 21.7547 3.47688 22.4839 3.99674 23.0055C4.5166 23.5213 5.24738 23.5184 5.76428 23.0026L6.73567 22.0363C7.24961 21.5235 7.25256 20.7884 6.73269 20.2696C6.53962 20.0769 6.28413 19.9613 5.89201 19.9287ZM6.60794 21.5709L6.21286 21.971C5.8326 21.9058 5.59495 21.7724 5.4078 21.5857C4.68593 20.8684 4.69187 19.8606 5.40483 19.1492L6.41782 18.1354C7.13076 17.424 8.14078 17.4181 8.86266 18.1384C9.58156 18.8587 9.5756 19.8635 8.86564 20.5749L7.99227 21.4434C8.02196 21.2508 8.00413 21.0314 7.92097 20.8417L8.50323 20.2607C9.01713 19.7479 9.02306 19.0158 8.50323 18.497C7.98336 17.9783 7.25256 17.9813 6.73269 18.497L5.76428 19.4634C5.25035 19.9762 5.24738 20.7113 5.76725 21.23C5.96034 21.4227 6.21581 21.5412 6.60794 21.5709Z" fill="#242424"/>
<path d="M13.9766 19.7343L19.5332 16.4433C19.9531 16.209 19.9433 15.6426 19.5332 15.3984L13.9766 12.1074C13.5566 11.8633 13 12.0488 13 12.5273V19.3144C13 19.7832 13.5176 20.0078 13.9766 19.7343Z" fill="black" fill-opacity="0.85"/>
</g>
<defs>
<clipPath id="clip0_283_129">
<rect width="31.8359" height="27.0801" fill="white"/>
</clipPath>
</defs>
</svg>
